<svg xmlns="http://www.w3.org/2000/svg" width="128" height="128" viewBox="0 0 128 128"><path fill-rule="evenodd" d="M35.551 94.096v-1.621h-4.256v7.295h4.256v-1.592h-1.824v-2.692h4.777v5.616c0 .386-.145.71-.434.97-.29.26-.637.39-1.042.39h-7.21c-.405 0-.752-.13-1.041-.39a1.252 1.252 0 0 1-.435-.97v-9.959c0-.386.145-.71.435-.97.289-.26.636-.39 1.042-.39h7.209c.405 0 .752.13 1.042.39.29.26.434.584.434.97v2.953h-2.953zm13.722 8.367h-7.267c-.425 0-.782-.126-1.071-.377-.29-.25-.434-.569-.434-.955V89.782h3.01v9.988h4.256v-9.988h3.011v11.349c0 .386-.145.705-.434.955-.29.251-.647.377-1.071.377zM64.5 89.81v12.652h-2.606l-5.674-8.57v8.57h-2.953V89.81h4.256l3.995 6.08v-6.08H64.5zm10.48 0c.385 0 .728.13 1.027.391.3.26.449.584.449.97v9.959c0 .386-.15.705-.45.955-.298.251-.64.377-1.027.377h-8.57V89.81h8.57zm-5.617 2.722v2.258h4.14v-2.258h-4.14zm4.14 7.266v-2.287h-4.14V99.8h4.14zm14.04 2.664h-7.238c-.405 0-.753-.126-1.042-.377-.29-.25-.434-.569-.434-.955v-9.988c0-.367.144-.68.434-.94.29-.261.637-.392 1.042-.392h7.238c.405 0 .753.13 1.042.391.29.26.434.574.434.941v9.988c0 .386-.144.705-.434.955-.29.251-.637.377-1.042.377zM81.81 99.77h4.226v-7.266h-4.226v7.266zm18.122-9.959v2.664h-2.924v9.988h-2.982v-9.988h-2.924V89.81h8.83zM77.16 58.206s9.928 2.812 7.684 22.094c-.947-2.211-3.054-3.885-5.507-3.885l-.049.001v-.001a6.046 6.046 0 0 0-6.462-6.033v-.016a6.047 6.047 0 0 0-6.044-6.049c-.476 0-.935.066-1.379.17.213-4.41.434-8.204.65-10.69h1.192c2.75 2.149 2.84 7.008 2.84 7.008 5.795-15.513-.83-17.382-.83-17.382 0-15.234-5.262-18.317-5.262-18.317s-5.264 3.083-5.264 18.317c0 0-6.624 1.869-.828 17.382 0 0 .09-4.86 2.84-7.009h1.191c.219 2.511.442 6.358.657 10.824a5.991 5.991 0 0 0-1.853-.303 6.047 6.047 0 0 0-6.044 6.05 6.046 6.046 0 0 0-5.996 6.048v.001l-.05-.001c-2.452 0-4.559 1.673-5.506 3.884-2.244-19.28 7.684-22.093 7.684-22.093 0-38.116 13.17-45.83 13.17-45.83S77.16 20.09 77.16 58.205zM16.975 69.818c.645-.329 1.588-.83 2.822-1.388 7.454-3.403 15.308-5.792 23.337-7.395-.788 1.252-1.514 2.757-2.09 4.574a228.716 228.716 0 0 0-20.924 3.768l-3.042.712-1.078.266s.333-.197.975-.537c.645-.329-.642.34 0 0zm94.036 0c.642.34-.645-.329 0 0 .642.34.975.537.975.537l-1.078-.266-3.041-.712a228.716 228.716 0 0 0-20.925-3.768c-.575-1.817-1.302-3.322-2.09-4.574 8.029 1.603 15.883 3.992 23.337 7.395 1.234.559 2.177 1.059 2.822 1.388z"/></svg>